<svg xmlns="http://www.w3.org/2000/svg" xmlns:xlink="http://www.w3.org/1999/xlink" version="1.1" class="marks" width="838" height="517" viewBox="0 0 838 517"><rect width="838" height="517" fill="white"/><g fill="none" stroke-miterlimit="10" transform="translate(39,10)"><g class="mark-group role-frame root" role="graphics-object" aria-roledescription="group mark container"><g transform="translate(0,0)"><path class="background" aria-hidden="true" d="M0.5,0.5h600v300h-600Z" stroke="#ddd"/><g><g class="mark-group role-axis" aria-hidden="true"><g transform="translate(0.5,0.5)"><path class="background" aria-hidden="true" d="M0,0h0v0h0Z" pointer-events="none"/><g><g class="mark-rule role-axis-grid" pointer-events="none"><line transform="translate(0,300)" x2="600" y2="0" stroke="#ddd" stroke-width="1" opacity="1"/><line transform="translate(0,270)" x2="600" y2="0" stroke="#ddd" stroke-width="1" opacity="1"/><line transform="translate(0,240)" x2="600" y2="0" stroke="#ddd" stroke-width="1" opacity="1"/><line transform="translate(0,210)" x2="600" y2="0" stroke="#ddd" stroke-width="1" opacity="1"/><line transform="translate(0,180)" x2="600" y2="0" stroke="#ddd" stroke-width="1" opacity="1"/><line transform="translate(0,150)" x2="600" y2="0" stroke="#ddd" stroke-width="1" opacity="1"/><line transform="translate(0,120)" x2="600" y2="0" stroke="#ddd" stroke-width="1" opacity="1"/><line transform="translate(0,90)" x2="600" y2="0" stroke="#ddd" stroke-width="1" opacity="1"/><line transform="translate(0,60)" x2="600" y2="0" stroke="#ddd" stroke-width="1" opacity="1"/><line transform="translate(0,30)" x2="600" y2="0" stroke="#ddd" stroke-width="1" opacity="1"/><line transform="translate(0,0)" x2="600" y2="0" stroke="#ddd" stroke-width="1" opacity="1"/></g></g><path class="foreground" aria-hidden="true" d="" pointer-events="none" display="none"/></g></g><g class="mark-group role-axis" role="graphics-symbol" aria-roledescription="axis" aria-label="X-axis titled 'CourseName' for a discrete scale with 9 values: AdvancedTopicsinFoundationsofDatabases, ComputerAlgebra, ComputerProgrammingSkillsandConcepts, CreditsAwardedforAutonomousSystemsResearch[HeriotWattUniversity], Informatics1-CognitiveScience, ending with ResearchMethodsinSecurity,Privacy,andTrust"><g transform="translate(0.5,300.5)"><path class="background" aria-hidden="true" d="M0,0h0v0h0Z" pointer-events="none"/><g><g class="mark-rule role-axis-tick" pointer-events="none"><line transform="translate(33,0)" x2="0" y2="5" stroke="#888" stroke-width="1" opacity="1"/><line transform="translate(99,0)" x2="0" y2="5" stroke="#888" stroke-width="1" opacity="1"/><line transform="translate(166,0)" x2="0" y2="5" stroke="#888" stroke-width="1" opacity="1"/><line transform="translate(233,0)" x2="0" y2="5" stroke="#888" stroke-width="1" opacity="1"/><line transform="translate(300,0)" x2="0" y2="5" stroke="#888" stroke-width="1" opacity="1"/><line transform="translate(366,0)" x2="0" y2="5" stroke="#888" stroke-width="1" opacity="1"/><line transform="translate(433,0)" x2="0" y2="5" stroke="#888" stroke-width="1" opacity="1"/><line transform="translate(500,0)" x2="0" y2="5" stroke="#888" stroke-width="1" opacity="1"/><line transform="translate(566,0)" x2="0" y2="5" stroke="#888" stroke-width="1" opacity="1"/></g><g class="mark-text role-axis-label" pointer-events="none"><text text-anchor="end" transform="translate(32.833333333333314,7) rotate(270) translate(0,3)" font-family="sans-serif" font-size="10px" fill="#000" opacity="1">AdvancedTopicsinFoundationsofDat…</text><text text-anchor="end" transform="translate(99.49999999999999,7) rotate(270) translate(0,3)" font-family="sans-serif" font-size="10px" fill="#000" opacity="1">ComputerAlgebra</text><text text-anchor="end" transform="translate(166.16666666666666,7) rotate(270) translate(0,3)" font-family="sans-serif" font-size="10px" fill="#000" opacity="1">ComputerProgrammingSkillsandCo…</text><text text-anchor="end" transform="translate(232.83333333333331,7) rotate(270) translate(0,3)" font-family="sans-serif" font-size="10px" fill="#000" opacity="1">CreditsAwardedforAutonomousSyst…</text><text text-anchor="end" transform="translate(299.5,7) rotate(270) translate(0,3)" font-family="sans-serif" font-size="10px" fill="#000" opacity="1">Informatics1-CognitiveScience</text><text text-anchor="end" transform="translate(366.1666666666667,7) rotate(270) translate(0,3)" font-family="sans-serif" font-size="10px" fill="#000" opacity="1">Informatics2A-ProcessingFormalan…</text><text text-anchor="end" transform="translate(432.8333333333333,7) rotate(270) translate(0,3)" font-family="sans-serif" font-size="10px" fill="#000" opacity="1">IntroductiontoVisionandRobotics</text><text text-anchor="end" transform="translate(499.5,7) rotate(270) translate(0,3)" font-family="sans-serif" font-size="10px" fill="#000" opacity="1">IntroductoryAppliedMachineLearni…</text><text text-anchor="end" transform="translate(566.1666666666667,7) rotate(270) translate(0,3)" font-family="sans-serif" font-size="10px" fill="#000" opacity="1">ResearchMethodsinSecurity,Privacy,…</text></g><g class="mark-rule role-axis-domain" pointer-events="none"><line transform="translate(0,0)" x2="600" y2="0" stroke="#888" stroke-width="1" opacity="1"/></g><g class="mark-text role-axis-title" pointer-events="none"><text text-anchor="middle" transform="translate(300,199.8388671875)" font-family="sans-serif" font-size="11px" font-weight="bold" fill="#000" opacity="1">CourseName</text></g></g><path class="foreground" aria-hidden="true" d="" pointer-events="none" display="none"/></g></g><g class="mark-group role-axis" role="graphics-symbol" aria-roledescription="axis" aria-label="Y-axis titled 'Mark' for a linear scale with values from 0 to 50"><g transform="translate(0.5,0.5)"><path class="background" aria-hidden="true" d="M0,0h0v0h0Z" pointer-events="none"/><g><g class="mark-rule role-axis-tick" pointer-events="none"><line transform="translate(0,300)" x2="-5" y2="0" stroke="#888" stroke-width="1" opacity="1"/><line transform="translate(0,270)" x2="-5" y2="0" stroke="#888" stroke-width="1" opacity="1"/><line transform="translate(0,240)" x2="-5" y2="0" stroke="#888" stroke-width="1" opacity="1"/><line transform="translate(0,210)" x2="-5" y2="0" stroke="#888" stroke-width="1" opacity="1"/><line transform="translate(0,180)" x2="-5" y2="0" stroke="#888" stroke-width="1" opacity="1"/><line transform="translate(0,150)" x2="-5" y2="0" stroke="#888" stroke-width="1" opacity="1"/><line transform="translate(0,120)" x2="-5" y2="0" stroke="#888" stroke-width="1" opacity="1"/><line transform="translate(0,90)" x2="-5" y2="0" stroke="#888" stroke-width="1" opacity="1"/><line transform="translate(0,60)" x2="-5" y2="0" stroke="#888" stroke-width="1" opacity="1"/><line transform="translate(0,30)" x2="-5" y2="0" stroke="#888" stroke-width="1" opacity="1"/><line transform="translate(0,0)" x2="-5" y2="0" stroke="#888" stroke-width="1" opacity="1"/></g><g class="mark-text role-axis-label" pointer-events="none"><text text-anchor="end" transform="translate(-7,303)" font-family="sans-serif" font-size="10px" fill="#000" opacity="1">0</text><text text-anchor="end" transform="translate(-7,273)" font-family="sans-serif" font-size="10px" fill="#000" opacity="1">5</text><text text-anchor="end" transform="translate(-7,243)" font-family="sans-serif" font-size="10px" fill="#000" opacity="1">10</text><text text-anchor="end" transform="translate(-7,213)" font-family="sans-serif" font-size="10px" fill="#000" opacity="1">15</text><text text-anchor="end" transform="translate(-7,183)" font-family="sans-serif" font-size="10px" fill="#000" opacity="1">20</text><text text-anchor="end" transform="translate(-7,153)" font-family="sans-serif" font-size="10px" fill="#000" opacity="1">25</text><text text-anchor="end" transform="translate(-7,123)" font-family="sans-serif" font-size="10px" fill="#000" opacity="1">30</text><text text-anchor="end" transform="translate(-7,93.00000000000001)" font-family="sans-serif" font-size="10px" fill="#000" opacity="1">35</text><text text-anchor="end" transform="translate(-7,62.999999999999986)" font-family="sans-serif" font-size="10px" fill="#000" opacity="1">40</text><text text-anchor="end" transform="translate(-7,32.99999999999999)" font-family="sans-serif" font-size="10px" fill="#000" opacity="1">45</text><text text-anchor="end" transform="translate(-7,3)" font-family="sans-serif" font-size="10px" fill="#000" opacity="1">50</text></g><g class="mark-rule role-axis-domain" pointer-events="none"><line transform="translate(0,300)" x2="0" y2="-300" stroke="#888" stroke-width="1" opacity="1"/></g><g class="mark-text role-axis-title" pointer-events="none"><text text-anchor="middle" transform="translate(-22.728515625,150) rotate(-90) translate(0,-2)" font-family="sans-serif" font-size="11px" font-weight="bold" fill="#000" opacity="1">Mark</text></g></g><path class="foreground" aria-hidden="true" d="" pointer-events="none" display="none"/></g></g><g class="mark-rect role-mark layer_0_marks" role="graphics-object" aria-roledescription="rect mark container"><path aria-label="CourseName: Informatics1-CognitiveScience; Mark: 49.18" role="graphics-symbol" aria-roledescription="bar" d="M270,4.919999999999991h60.00000000000001v295.08h-60.00000000000001Z" fill="#54a24b" opacity="0.5"/><path aria-label="CourseName: IntroductiontoVisionandRobotics; Mark: 40.25" role="graphics-symbol" aria-roledescription="bar" d="M403.3333333333333,58.499999999999986h60.00000000000001v241.5h-60.00000000000001Z" fill="#b279a2" opacity="0.5"/><path aria-label="CourseName: IntroductoryAppliedMachineLearning(DistanceLearning); Mark: 48.47" role="graphics-symbol" aria-roledescription="bar" d="M470,9.180000000000021h60.00000000000001v290.82h-60.00000000000001Z" fill="#ff9da6" opacity="0.5"/><path aria-label="CourseName: ResearchMethodsinSecurity,Privacy,andTrust; Mark: 43.17" role="graphics-symbol" aria-roledescription="bar" d="M536.6666666666667,40.97999999999998h60.00000000000001v259.02000000000004h-60.00000000000001Z" fill="#9d755d" opacity="0.5"/><path aria-label="CourseName: Informatics2A-ProcessingFormalandNaturalLanguages; Mark: 45" role="graphics-symbol" aria-roledescription="bar" d="M336.6666666666667,29.999999999999993h60.00000000000001v270h-60.00000000000001Z" fill="#eeca3b" opacity="0.5"/><path aria-label="CourseName: AdvancedTopicsinFoundationsofDatabases; Mark: 49.13" role="graphics-symbol" aria-roledescription="bar" d="M3.3333333333333144,5.219999999999992h60.00000000000001v294.78000000000003h-60.00000000000001Z" fill="#4c78a8" opacity="0.5"/><path aria-label="CourseName: ComputerAlgebra; Mark: 41.63" role="graphics-symbol" aria-roledescription="bar" d="M69.99999999999999,50.22h60.00000000000001v249.78h-60.00000000000001Z" fill="#f58518" opacity="0.5"/><path aria-label="CourseName: ComputerProgrammingSkillsandConcepts; Mark: 47.32" role="graphics-symbol" aria-roledescription="bar" d="M136.66666666666666,16.079999999999995h60.00000000000001v283.92h-60.00000000000001Z" fill="#e45756" opacity="0.5"/><path aria-label="CourseName: ComputerProgrammingSkillsandConcepts; Mark: 45.05" role="graphics-symbol" aria-roledescription="bar" d="M136.66666666666666,29.700000000000028h60.00000000000001v270.29999999999995h-60.00000000000001Z" fill="#e45756" opacity="0.5"/><path aria-label="CourseName: CreditsAwardedforAutonomousSystemsResearch[HeriotWattUniversity]; Mark: 22.23" role="graphics-symbol" aria-roledescription="bar" d="M203.33333333333331,166.62h60.00000000000001v133.38h-60.00000000000001Z" fill="#72b7b2" opacity="0.5"/></g><g class="mark-text role-mark layer_1_marks" role="graphics-object" aria-roledescription="text mark container"><text aria-label="CourseName: Informatics1-CognitiveScience; Mark: 49.18" role="graphics-symbol" aria-roledescription="text mark" text-anchor="middle" transform="translate(300,7.919999999999991)" font-family="sans-serif" font-size="11px" fill="#54a24b">49.18</text><text aria-label="CourseName: IntroductiontoVisionandRobotics; Mark: 40.25" role="graphics-symbol" aria-roledescription="text mark" text-anchor="middle" transform="translate(433.3333333333333,61.499999999999986)" font-family="sans-serif" font-size="11px" fill="#b279a2">40.25</text><text aria-label="CourseName: IntroductoryAppliedMachineLearning(DistanceLearning); Mark: 48.47" role="graphics-symbol" aria-roledescription="text mark" text-anchor="middle" transform="translate(500,12.180000000000021)" font-family="sans-serif" font-size="11px" fill="#ff9da6">48.47</text><text aria-label="CourseName: ResearchMethodsinSecurity,Privacy,andTrust; Mark: 43.17" role="graphics-symbol" aria-roledescription="text mark" text-anchor="middle" transform="translate(566.6666666666667,43.97999999999998)" font-family="sans-serif" font-size="11px" fill="#9d755d">43.17</text><text aria-label="CourseName: Informatics2A-ProcessingFormalandNaturalLanguages; Mark: 45" role="graphics-symbol" aria-roledescription="text mark" text-anchor="middle" transform="translate(366.6666666666667,32.99999999999999)" font-family="sans-serif" font-size="11px" fill="#eeca3b">45</text><text aria-label="CourseName: AdvancedTopicsinFoundationsofDatabases; Mark: 49.13" role="graphics-symbol" aria-roledescription="text mark" text-anchor="middle" transform="translate(33.333333333333314,8.219999999999992)" font-family="sans-serif" font-size="11px" fill="#4c78a8">49.13</text><text aria-label="CourseName: ComputerAlgebra; Mark: 41.63" role="graphics-symbol" aria-roledescription="text mark" text-anchor="middle" transform="translate(99.99999999999999,53.22)" font-family="sans-serif" font-size="11px" fill="#f58518">41.63</text><text aria-label="CourseName: ComputerProgrammingSkillsandConcepts; Mark: 47.32" role="graphics-symbol" aria-roledescription="text mark" text-anchor="middle" transform="translate(166.66666666666666,19.079999999999995)" font-family="sans-serif" font-size="11px" fill="#e45756">47.32</text><text aria-label="CourseName: ComputerProgrammingSkillsandConcepts; Mark: 45.05" role="graphics-symbol" aria-roledescription="text mark" text-anchor="middle" transform="translate(166.66666666666666,32.70000000000003)" font-family="sans-serif" font-size="11px" fill="#e45756">45.05</text><text aria-label="CourseName: CreditsAwardedforAutonomousSystemsResearch[HeriotWattUniversity]; Mark: 22.23" role="graphics-symbol" aria-roledescription="text mark" text-anchor="middle" transform="translate(233.33333333333331,169.62)" font-family="sans-serif" font-size="11px" fill="#72b7b2">22.23</text></g><g class="mark-group role-legend" role="graphics-symbol" aria-roledescription="legend" aria-label="Symbol legend titled 'CourseName' for fill color with 9 values: AdvancedTopicsinFoundationsofDatabases, ComputerAlgebra, ComputerProgrammingSkillsandConcepts, CreditsAwardedforAutonomousSystemsResearch[HeriotWattUniversity], Informatics1-CognitiveScience, ending with ResearchMethodsinSecurity,Privacy,andTrust"><g transform="translate(618,0)"><path class="background" aria-hidden="true" d="M0,0h176v131h-176Z" pointer-events="none"/><g><g class="mark-group role-legend-entry"><g transform="translate(0,16)"><path class="background" aria-hidden="true" d="M0,0h0v0h0Z" pointer-events="none"/><g><g class="mark-group role-scope" role="graphics-object" aria-roledescription="group mark container"><g transform="translate(0,0)"><path class="background" aria-hidden="true" d="M0,0h175.9267578125v11h-175.9267578125Z" pointer-events="none" opacity="1"/><g><g class="mark-symbol role-legend-symbol" pointer-events="none"><path transform="translate(6,6)" d="M5,0A5,5,0,1,1,-5,0A5,5,0,1,1,5,0" fill="#4c78a8" stroke-width="1.5" opacity="0.5"/></g><g class="mark-text role-legend-label" pointer-events="none"><text text-anchor="start" transform="translate(16,9)" font-family="sans-serif" font-size="10px" fill="#000" opacity="1">AdvancedTopicsinFoundationso…</text></g></g><path class="foreground" aria-hidden="true" d="" pointer-events="none" display="none"/></g><g transform="translate(0,13)"><path class="background" aria-hidden="true" d="M0,0h175.9267578125v11h-175.9267578125Z" pointer-events="none" opacity="1"/><g><g class="mark-symbol role-legend-symbol" pointer-events="none"><path transform="translate(6,6)" d="M5,0A5,5,0,1,1,-5,0A5,5,0,1,1,5,0" fill="#f58518" stroke-width="1.5" opacity="0.5"/></g><g class="mark-text role-legend-label" pointer-events="none"><text text-anchor="start" transform="translate(16,9)" font-family="sans-serif" font-size="10px" fill="#000" opacity="1">ComputerAlgebra</text></g></g><path class="foreground" aria-hidden="true" d="" pointer-events="none" display="none"/></g><g transform="translate(0,26)"><path class="background" aria-hidden="true" d="M0,0h175.9267578125v11h-175.9267578125Z" pointer-events="none" opacity="1"/><g><g class="mark-symbol role-legend-symbol" pointer-events="none"><path transform="translate(6,6)" d="M5,0A5,5,0,1,1,-5,0A5,5,0,1,1,5,0" fill="#e45756" stroke-width="1.5" opacity="0.5"/></g><g class="mark-text role-legend-label" pointer-events="none"><text text-anchor="start" transform="translate(16,9)" font-family="sans-serif" font-size="10px" fill="#000" opacity="1">ComputerProgrammingSkillsan…</text></g></g><path class="foreground" aria-hidden="true" d="" pointer-events="none" display="none"/></g><g transform="translate(0,39)"><path class="background" aria-hidden="true" d="M0,0h175.9267578125v11h-175.9267578125Z" pointer-events="none" opacity="1"/><g><g class="mark-symbol role-legend-symbol" pointer-events="none"><path transform="translate(6,6)" d="M5,0A5,5,0,1,1,-5,0A5,5,0,1,1,5,0" fill="#72b7b2" stroke-width="1.5" opacity="0.5"/></g><g class="mark-text role-legend-label" pointer-events="none"><text text-anchor="start" transform="translate(16,9)" font-family="sans-serif" font-size="10px" fill="#000" opacity="1">CreditsAwardedforAutonomous…</text></g></g><path class="foreground" aria-hidden="true" d="" pointer-events="none" display="none"/></g><g transform="translate(0,52)"><path class="background" aria-hidden="true" d="M0,0h175.9267578125v11h-175.9267578125Z" pointer-events="none" opacity="1"/><g><g class="mark-symbol role-legend-symbol" pointer-events="none"><path transform="translate(6,6)" d="M5,0A5,5,0,1,1,-5,0A5,5,0,1,1,5,0" fill="#54a24b" stroke-width="1.5" opacity="0.5"/></g><g class="mark-text role-legend-label" pointer-events="none"><text text-anchor="start" transform="translate(16,9)" font-family="sans-serif" font-size="10px" fill="#000" opacity="1">Informatics1-CognitiveScience</text></g></g><path class="foreground" aria-hidden="true" d="" pointer-events="none" display="none"/></g><g transform="translate(0,65)"><path class="background" aria-hidden="true" d="M0,0h175.9267578125v11h-175.9267578125Z" pointer-events="none" opacity="1"/><g><g class="mark-symbol role-legend-symbol" pointer-events="none"><path transform="translate(6,6)" d="M5,0A5,5,0,1,1,-5,0A5,5,0,1,1,5,0" fill="#eeca3b" stroke-width="1.5" opacity="0.5"/></g><g class="mark-text role-legend-label" pointer-events="none"><text text-anchor="start" transform="translate(16,9)" font-family="sans-serif" font-size="10px" fill="#000" opacity="1">Informatics2A-ProcessingForm…</text></g></g><path class="foreground" aria-hidden="true" d="" pointer-events="none" display="none"/></g><g transform="translate(0,78)"><path class="background" aria-hidden="true" d="M0,0h175.9267578125v11h-175.9267578125Z" pointer-events="none" opacity="1"/><g><g class="mark-symbol role-legend-symbol" pointer-events="none"><path transform="translate(6,6)" d="M5,0A5,5,0,1,1,-5,0A5,5,0,1,1,5,0" fill="#b279a2" stroke-width="1.5" opacity="0.5"/></g><g class="mark-text role-legend-label" pointer-events="none"><text text-anchor="start" transform="translate(16,9)" font-family="sans-serif" font-size="10px" fill="#000" opacity="1">IntroductiontoVisionandRobotics</text></g></g><path class="foreground" aria-hidden="true" d="" pointer-events="none" display="none"/></g><g transform="translate(0,91)"><path class="background" aria-hidden="true" d="M0,0h175.9267578125v11h-175.9267578125Z" pointer-events="none" opacity="1"/><g><g class="mark-symbol role-legend-symbol" pointer-events="none"><path transform="translate(6,6)" d="M5,0A5,5,0,1,1,-5,0A5,5,0,1,1,5,0" fill="#ff9da6" stroke-width="1.5" opacity="0.5"/></g><g class="mark-text role-legend-label" pointer-events="none"><text text-anchor="start" transform="translate(16,9)" font-family="sans-serif" font-size="10px" fill="#000" opacity="1">IntroductoryAppliedMachineLe…</text></g></g><path class="foreground" aria-hidden="true" d="" pointer-events="none" display="none"/></g><g transform="translate(0,104)"><path class="background" aria-hidden="true" d="M0,0h175.9267578125v11h-175.9267578125Z" pointer-events="none" opacity="1"/><g><g class="mark-symbol role-legend-symbol" pointer-events="none"><path transform="translate(6,6)" d="M5,0A5,5,0,1,1,-5,0A5,5,0,1,1,5,0" fill="#9d755d" stroke-width="1.5" opacity="0.5"/></g><g class="mark-text role-legend-label" pointer-events="none"><text text-anchor="start" transform="translate(16,9)" font-family="sans-serif" font-size="10px" fill="#000" opacity="1">ResearchMethodsinSecurity,Pri…</text></g></g><path class="foreground" aria-hidden="true" d="" pointer-events="none" display="none"/></g></g></g><path class="foreground" aria-hidden="true" d="" pointer-events="none" display="none"/></g></g><g class="mark-text role-legend-title" pointer-events="none"><text text-anchor="start" transform="translate(0,9)" font-family="sans-serif" font-size="11px" font-weight="bold" fill="#000" opacity="1">CourseName</text></g></g><path class="foreground" aria-hidden="true" d="" pointer-events="none" display="none"/></g></g></g><path class="foreground" aria-hidden="true" d="" display="none"/></g></g></g></svg>